# xmcd CD database file
#
# Track frame offsets:
#	150
#	18006
#	33481
#	54859
#	68835
#	89217
#	110046
#	120356
#	134836
#	149224
#	163610
#	176857
#	189232
#	209171
#	223065
#	240566
#	255626
#	270142
#	284233
#	299164
#	312385
#	321654
#	334844
#
# Disc length: 4641 seconds
#
# Revision: 0
# Processed by: cddbd v1.5.2PL0 Copyright (c) Steve Scherf et al.
# Submitted via: CDex 1.70beta1
#
DISCID=83121f17
DTITLE=Oscar "Papa" Celestin - The 1950s Broadcasts
DYEAR=1996
DGENRE=Jazz
TTITLE0=1. Sheik of Araby
TTITLE1=2. Eh, La Bas (1950)
TTITLE2=3. Lil' Liza Jane
TTITLE3=4. Just a Closer Walk with Thee
TTITLE4=5. Billy Bailey
TTITLE5=6. Mama Dont Allow
TTITLE6=7. Jazz it Blues
TTITLE7=8. It Dont Mean a Thing
TTITLE8=9. Panama
TTITLE9=10. San
TTITLE10=11. Sister Kate
TTITLE11=12. Dippermouth Blues
TTITLE12=13. Tiger Rag
TTITLE13=14. Maryland, My Maryland
TTITLE14=15. Milenburg Joys
TTITLE15=16. War Cloud
TTITLE16=17. Woodchopper's Ball
TTITLE17=18. High Society
TTITLE18=19. Eh La Bas (1951)
TTITLE19=20. Fidgety Feet
TTITLE20=21. Ballin' the jack
TTITLE21=22. Oh Didnt he Ramble
TTITLE22=23. When the Saints go Marching in
EXTD=YEAR: 1996
EXTT0=
EXTT1=
EXTT2=
EXTT3=
EXTT4=
EXTT5=
EXTT6=
EXTT7=
EXTT8=
EXTT9=
EXTT10=
EXTT11=
EXTT12=
EXTT13=
EXTT14=
EXTT15=
EXTT16=
EXTT17=
EXTT18=
EXTT19=
EXTT20=
EXTT21=
EXTT22=
PLAYORDER=
